# xmcd
#
# Track frame offsets: 
#        150
#        14558
#        28497
#        40729
#        53221
#        66870
#        78840
#        92825
#        106064
#        119079
#        131152
#        143429
#        156834
#        170411
#        184824
#        200877
#        216100
#        231154
#        245993
#        261329
#        277032
#        289706
#        302287
#        318261
#
# Disc length: 4437 seconds
#
# Revision: 0
# Processed by: cddbd v1.5.1PL0 Copyright (c) Steve Scherf et al.
# Submitted via: ExactAudioCopy v0.95a5
#
DISCID=6a115318
DTITLE=Various Artist - Classic Blues and Vaudeville Singers: The Alternate Tak
DTITLE=es (1921-1930)
DYEAR=1900
DGENRE=
TTITLE0=Ida Cox - Bama Bound Blues [take 2]
TTITLE1=Ida Cox - Lovin' Is the Thing I'm Wild About [take 2]
TTITLE2=Ida Cox - Moanin' Groanin' Blues [take 3]
TTITLE3=Ida Cox - Chicago Bound Blues [take 4]
TTITLE4=Ida Cox - Chicago Bound Blues [take 6]
TTITLE5=Ida Cox - Come Right In [take 2]
TTITLE6=Ida Cox - Worried Mama Blues [take 2]
TTITLE7=Ida Cox - Bear Mash Blues [take 1]
TTITLE8=Ida Cox - Blues Ain't Nothin' Else But! [take 1]
TTITLE9=Ida Cox - How Can I Miss You When I've Got Dead Aim [take 1]
TTITLE10=Ida Cox - Rambling Blues [take 1]
TTITLE11=Ida Cox - Seven Day Blues [take 1]
TTITLE12=Ida Cox - Sneaking Blues (I. C. Train)
TTITLE13=Trixie Smith - Desperate Blues [take 1]
TTITLE14=Trixie Smith - Freight Train Blues [take 2]
TTITLE15=Trixie Smith - Don't Shake It No More [take 1]
TTITLE16=Trixie Smith - Everybody Loves My Baby (But My Baby Don't Lov
TTITLE16=e Nobody but Me) [take 4]
TTITLE17=Trixie Smith - How Come You Do Me Like You Do? [take 7]
TTITLE18=Trixie Smith - Everybody's Doing the Charleston Now [take 2]
TTITLE19=Lucille Hegamin - Arkansas Blues [take 2]
TTITLE20=Lucille Hegamin - He May Be Your Man (But He Comes to See Me)
TTITLE20=[take 1 or 2]
TTITLE21=Priscilla Stewart - Mecca Flat Blues [take 1]
TTITLE22=Billie Young - When They Get Lovin' They's Gone [take 2]
TTITLE23=Billie Young - You Done Played Out Blues [take 2]
EXTD=
EXTT0=
EXTT1=
EXTT2=
EXTT3=
EXTT4=
EXTT5=
EXTT6=
EXTT7=
EXTT8=
EXTT9=
EXTT10=
EXTT11=
EXTT12=
EXTT13=
EXTT14=
EXTT15=
EXTT16=
EXTT17=
EXTT18=
EXTT19=
EXTT20=
EXTT21=
EXTT22=
EXTT23=
PLAYORDER=
